<?xml version="1.0" encoding="UTF-8" standalone="no"?>
<!DOCTYPE svg PUBLIC "-//W3C//DTD SVG 1.1//EN" "http://www.w3.org/Graphics/SVG/1.1/DTD/svg11.dtd">
<svg width="100%" height="100%" viewBox="0 0 500 500" version="1.1" xmlns="http://www.w3.org/2000/svg" xmlns:xlink="http://www.w3.org/1999/xlink" xml:space="preserve" xmlns:serif="http://www.serif.com/" style="fill-rule:evenodd;clip-rule:evenodd;stroke-linejoin:round;stroke-miterlimit:2;">
    <g transform="matrix(1.11766,0,0,1.11766,-48.9033,-40.8043)">
        <path d="M468.75,119.271C468.75,85.938 441.688,58.877 408.356,58.877L126.517,58.877C93.185,58.877 66.123,85.938 66.123,119.271L66.123,401.11C66.123,434.442 93.185,461.504 126.517,461.504L408.356,461.504C441.688,461.504 468.75,434.442 468.75,401.11L468.75,119.271Z" style="fill:url(#_Linear1);"/>
    </g>
    <g id="artboard-fill" transform="matrix(12.6244,0,0,12.6244,250,250)">
        <g transform="matrix(1,0,0,1,-12,-12)">
            <rect x="0" y="0" width="24" height="24" style="fill:none;fill-rule:nonzero;"/>
            <path d="M8.586,17L3,17L3,15L21,15L21,17L15.414,17L18.657,20.243L17.243,21.657L13,17.414L13,20L11,20L11,17.414L6.757,21.657L5.343,20.243L8.586,17ZM5,3L19,3C19.549,3 20,3.451 20,4L20,14L4,14L4,4C4,3.451 4.451,3 5,3Z" style="fill:white;fill-rule:nonzero;"/>
        </g>
    </g>
    <defs>
        <linearGradient id="_Linear1" x1="0" y1="0" x2="1" y2="0" gradientUnits="userSpaceOnUse" gradientTransform="matrix(402.627,0,0,402.627,66.1232,260.19)"><stop offset="0" style="stop-color:rgb(133,136,200);stop-opacity:1"/><stop offset="1" style="stop-color:rgb(136,178,251);stop-opacity:1"/></linearGradient>
    </defs>
</svg>
